<svg width="16" height="16" viewBox="0 0 16 16" fill="none" xmlns="http://www.w3.org/2000/svg">
<path d="M8.58513 5.52381H6.34823C6.07328 5.52381 5.85115 5.74512 5.85115 6.01905V14.4381C5.85115 14.712 6.07328 14.9333 6.34823 14.9333H8.58513C8.86008 14.9333 9.08222 14.712 9.08222 14.4381V6.01905C9.08222 5.74512 8.86008 5.52381 8.58513 5.52381ZM13.3696 1.06667H11.1327C10.8577 1.06667 10.6356 1.28798 10.6356 1.5619V14.4381C10.6356 14.712 10.8577 14.9333 11.1327 14.9333H13.3696C13.6445 14.9333 13.8667 14.712 13.8667 14.4381V1.5619C13.8667 1.28798 13.6445 1.06667 13.3696 1.06667ZM3.80066 9.98095H1.56377C1.28882 9.98095 1.06668 10.2023 1.06668 10.4762V14.4381C1.06668 14.712 1.28882 14.9333 1.56377 14.9333H3.80066C4.07561 14.9333 4.29775 14.712 4.29775 14.4381V10.4762C4.29775 10.2023 4.07561 9.98095 3.80066 9.98095Z" fill="#222222"/>
</svg>
