<svg width="24" height="24" viewBox="0 0 24 24" fill="none" xmlns="http://www.w3.org/2000/svg">
<path d="M12 4C12.3429 4 12.6359 4.09853 12.8965 4.29688V4.29785L12.9004 4.2998L18.9043 8.80273C19.0889 8.93811 19.2335 9.11012 19.3408 9.32422C19.4211 9.48444 19.4707 9.64986 19.4902 9.82324L19.5 9.99902V19C19.5 19.4162 19.3577 19.7605 19.0586 20.0596C18.797 20.3212 18.5011 20.4622 18.1533 20.4932L18.001 20.5H15C14.8431 20.5 14.7354 20.4523 14.6426 20.3594C14.5722 20.2888 14.5268 20.2096 14.5088 20.1084L14.5 19.999V15C14.5 14.5905 14.3552 14.2234 14.0645 13.9336C13.811 13.6812 13.4996 13.539 13.1523 13.5068L13.001 13.5H11C10.5905 13.5 10.2234 13.6448 9.93359 13.9355C9.68116 14.189 9.53901 14.5004 9.50684 14.8477L9.5 14.999V20C9.5 20.1571 9.45217 20.2656 9.3584 20.3594C9.28808 20.4297 9.20985 20.4737 9.10938 20.4912L9.00098 20.5H6C5.58354 20.5 5.23963 20.3578 4.94141 20.0596C4.68039 19.7986 4.53854 19.5021 4.50684 19.1523L4.5 18.999V10C4.5 9.76121 4.55301 9.53805 4.66016 9.32422C4.7408 9.16332 4.84235 9.02654 4.96582 8.91113L5.09668 8.80273L5.09961 8.7998L11.0996 4.2998L11.1025 4.29785C11.3633 4.09914 11.6568 4 12 4Z" stroke="#444444"/>
</svg>
