<svg width="16" height="16" viewBox="0 0 16 16" fill="none" xmlns="http://www.w3.org/2000/svg">
<path d="M7.46667 14.9333C7.00723 14.9333 6.6189 14.7665 6.30167 14.4329C5.98445 14.0993 5.82583 13.691 5.82583 13.2078C5.82583 12.7247 5.98445 12.3163 6.30167 11.9827C6.6189 11.6492 7.00723 11.4824 7.46667 11.4824C7.9261 11.4824 8.31443 11.6492 8.63166 11.9827C8.94889 12.3163 9.1075 12.7247 9.1075 13.2078C9.1075 13.691 8.94889 14.0993 8.63166 14.4329C8.31443 14.7665 7.9261 14.9333 7.46667 14.9333ZM7.46667 7.34118C8.28708 7.34118 9.06659 7.47922 9.80519 7.75529C10.5438 8.03137 11.2137 8.41098 11.8149 8.89412C12.0337 9.06667 12.1459 9.29397 12.1516 9.57603C12.1573 9.85809 12.0614 10.1024 11.8641 10.309C11.6781 10.5046 11.4484 10.6053 11.175 10.6113C10.9015 10.6173 10.6554 10.5395 10.4366 10.378C10.0209 10.079 9.56147 9.84314 9.05828 9.67059C8.55509 9.49804 8.02455 9.41176 7.46667 9.41176C6.90878 9.41176 6.37825 9.49804 5.87506 9.67059C5.37187 9.84314 4.91243 10.079 4.49675 10.378C4.27798 10.5391 4.03185 10.6139 3.75838 10.6024C3.4849 10.5908 3.25519 10.4873 3.06923 10.2918C2.88327 10.0847 2.79028 9.84038 2.79028 9.55878C2.79028 9.27718 2.89967 9.04987 3.11845 8.87686C3.72009 8.39373 4.39021 8.01688 5.1288 7.74632C5.8674 7.47576 6.64669 7.34072 7.46667 7.34118ZM7.46667 3.2C8.83403 3.2 10.1222 3.43582 11.3312 3.90745C12.5401 4.37908 13.6257 5.04627 14.5879 5.90902C14.8067 6.10458 14.9215 6.34614 14.9325 6.63373C14.9434 6.92131 14.8504 7.16863 14.6535 7.37569C14.4676 7.57124 14.2378 7.67201 13.9644 7.67799C13.6909 7.68397 13.4448 7.59471 13.226 7.4102C12.4384 6.7315 11.5552 6.20534 10.5764 5.83172C9.59757 5.45809 8.561 5.27105 7.46667 5.27059C6.37234 5.27013 5.33599 5.45717 4.35761 5.83172C3.37924 6.20626 2.49581 6.73242 1.70733 7.4102C1.48855 7.59425 1.24243 7.68351 0.968957 7.67799C0.695484 7.67247 0.465767 7.5717 0.279806 7.37569C0.0829054 7.16863 -0.0100753 6.92131 0.000863598 6.63373C0.0118025 6.34614 0.126661 6.10458 0.345439 5.90902C1.30806 5.04627 2.39386 4.37908 3.60283 3.90745C4.81179 3.43582 6.09974 3.2 7.46667 3.2Z" fill="#222222"/>
</svg>
