<svg width="24" height="24" viewBox="0 0 24 24" fill="none" xmlns="http://www.w3.org/2000/svg">
<path d="M11.6243 2.375C13.3364 2.37488 15.0139 2.86287 16.4583 3.78223C17.8123 4.64409 18.9089 5.85177 19.6379 7.27734L19.7795 7.56543C20.459 9.0197 20.7359 10.6275 20.5852 12.2217L20.5491 12.54C20.328 14.2335 19.6293 15.8284 18.5354 17.1396L17.3489 18.3193C16.3104 19.1753 15.0945 19.7871 13.7903 20.1104L13.5266 20.1719C12.2031 20.4579 10.833 20.4414 9.5188 20.125L9.2561 20.0576C7.94983 19.7012 6.7422 19.0546 5.72192 18.168L5.51978 17.9873C4.52481 17.0686 3.7507 15.9381 3.25415 14.6807L3.15845 14.4277C2.69916 13.1539 2.53404 11.7938 2.6731 10.4492L2.70532 10.1807C2.8851 8.83838 3.36516 7.55494 4.10864 6.42578L4.26001 6.20215C5.03832 5.09408 6.05641 4.17674 7.23657 3.51758L7.47485 3.38867C8.67641 2.76425 10.0026 2.41967 11.3538 2.37891L11.6243 2.375Z" stroke="#222222"/>
<path d="M20.7601 22.2166C20.9488 22.4182 21.2652 22.4288 21.4668 22.2401C21.6685 22.0515 21.679 21.7351 21.4904 21.5334L20.7601 22.2166ZM17.5 18L17.1349 18.3416L20.7601 22.2166L21.1252 21.875L21.4904 21.5334L17.8651 17.6584L17.5 18Z" fill="#222222"/>
</svg>
